/* XPM */
static char *_9536223241944b5f484539ce4a0c633FNkednUEWj6kuqSr[] = {
/* columns rows colors chars-per-pixel */
"64 64 168 2 ",
"   c None",
".  c #927612",
"X  c #967914",
"o  c #9A7E16",
"O  c #997F22",
"+  c #9C8017",
"@  c #9E8219",
"#  c #A2851A",
"$  c #A68A1D",
"%  c #A98C1D",
"&  c #9A8023",
"*  c #9F8934",
"=  c #A38A20",
"-  c #A98D20",
";  c #A78E2C",
":  c #A98E2B",
">  c #AE9122",
",  c #AE942E",
"<  c #B39523",
"1  c #B69926",
"2  c #B89B26",
"3  c #B49728",
"4  c #B69A29",
"5  c #BB9D29",
"6  c #B69D33",
"7  c #BFA537",
"8  c #BEA438",
"9  c #C5A62E",
"0  c #C7A82F",
"q  c #C8A92F",
"w  c #C4A631",
"e  c #C3A834",
"r  c #CAAA31",
"t  c #CDAF3B",
"y  c #CEB037",
"u  c #CCB33C",
"i  c #D1B237",
"p  c #D3B43B",
"a  c #D7B93E",
"s  c #D8BA3E",
"d  c #CBAF40",
"f  c #CBB141",
"g  c #D4B644",
"h  c #D4B941",
"j  c #DCBC45",
"k  c #DEBE48",
"l  c #DEC14A",
"z  c #D6C450",
"x  c #DDC153",
"c  c #DDC850",
"v  c #DDCD59",
"b  c #E0C147",
"n  c #E1C24C",
"m  c #E4C651",
"M  c #E5CA54",
"N  c #EACB55",
"B  c #E1C558",
"V  c #E5CA59",
"C  c #ECCD58",
"Z  c #E6D35B",
"A  c #EDD15C",
"S  c #EACE63",
"D  c #E9CE68",
"F  c #ECD163",
"G  c #E5D863",
"H  c #EDDA64",
"J  c #EED46B",
"K  c #EFD86D",
"L  c #F0D761",
"P  c #F2DC65",
"I  c #F0D66D",
"U  c #F0DA6F",
"Y  c #EFD770",
"T  c #F1D771",
"R  c #F2D973",
"E  c #F3DB79",
"W  c #EFE46F",
"Q  c #F3E366",
"!  c #F4E46D",
"~  c #F8E76F",
"^  c #F7E86F",
"/  c #F6E573",
"(  c #F8E777",
")  c #F6E973",
"_  c #FAEC76",
"`  c #F6E278",
"'  c #F9E779",
"]  c #F7E878",
"[  c #FAEC79",
"{  c #FFF677",
"}  c #FEF579",
"|  c #FFF579",
" . c #FFF579",
".. c #FFF678",
"X. c #FFF47A",
"o. c #FDF67A",
"O. c #FEF67B",
"+. c #FEF67A",
"@. c #FCF47B",
"#. c #FEF37C",
"$. c #FEF37D",
"%. c #FEF07F",
"&. c #FDF47C",
"*. c #FEF37D",
"=. c #F3DE83",
"-. c #F3DE83",
";. c #F5E181",
":. c #FDEF82",
">. c #FEEF83",
",. c #FDEC84",
"<. c #FEED85",
"1. c #FEEE85",
"2. c #FEED86",
"3. c #FEED87",
"4. c #FDEA8B",
"5. c #FEEA8B",
"6. c #FDEE89",
"7. c #FCED8A",
"8. c #FDE88D",
"9. c #FDE98D",
"0. c #FDE98C",
"q. c #FEE98D",
"w. c #FDEA8C",
"e. c #FDEB8D",
"r. c #FEEA8C",
"t. c #FEEA8D",
"y. c #FDE98E",
"u. c #FDE98F",
"i. c #FEE98E",
"p. c #FEE98F",
"a. c #FDEA8E",
"s. c #FDEF8C",
"d. c #FDF081",
"f. c #FDF080",
"g. c #FEF080",
"h. c #FEF081",
"j. c #FDF082",
"k. c #FEF082",
"l. c #FEF680",
"z. c #FCF08A",
"x. c #FBEA91",
"c. c #FDE991",
"v. c #FCEA91",
"b. c #FDEA91",
"n. c #FCEA90",
"m. c #FCEA92",
"M. c #FDEA92",
"N. c #FAEB95",
"B. c #FDED94",
"V. c #FCEF94",
"C. c #FDEE97",
"Z. c #FBEB99",
"A. c #FAEE9D",
"S. c #FBEC9F",
"D. c #FDEC9F",
"F. c #FCF092",
"G. c #FCEDA1",
"H. c #FCEEA1",
"J. c #FCEDA3",
"K. c #FCEEA3",
"L. c #FEEBA5",
"P. c #FBEDA5",
"I. c #FBEDA6",
"U. c #FCEDA4",
"Y. c #FCEEA5",
"T. c #FCEFA6",
"R. c #FCEDA9",
"E. c #FCEEA9",
/* pixels */
"      E.v.v.v.M.M.M.v.M.M.v.v.v.Z.            G.v.v.v.v.v.v.v.v.v.M.v.v.M.v.v.v.G.            G.v.v.v.M.m.m.m.m.m.m.m.m.G.      ",
"      I.9.9.9.9.9.v.9.9.v.9.9.v.v.            L.9.9.9.v.9.9.v.9.9.v.9.9.v.9.9.9.G.            G.v.9.9.v.9.9.9.9.v.9.9.9.N.      ",
"      Y.5.9.9.7.9.9.9.7.9.5.9.9.v.            L.7.9.9.9.5.5.5.7.9.9.9.5.5.9.9.9.G.            G.9.9.9.9.5.9.9.9.9.9.e.4.Z.      ",
"E.I.Y.F.%.k.%.%.%.%.%.%.%.%.%.k.z.A.Y.Y.Y.Y.Y.C.k.%.%.%.%.%.%.%.%.%.%.%.%.%.k.k.C.Y.Y.Y.Y.Y.G.z.k.k.k.k.k.k.k.:.k.k.k.k.C.Y.Y.E.",
"v.9.9.k.{ { { ......{ { { { { ..%.5.9.9.q.9.v.k.{ { ......{ { { { { ....{ ......<.9.9.9.9.9.7.%.....{ { ....{ { ........:.9.9.v.",
"v.9.9.k.....{ { ..{ { { { { { { O.5.9.9.9.v.9.k.{ { ..{ { { { ....{ ..........{ <.9.9.9.9.9.9.O.....{ { { ..{ { ......+.k.5.9.v.",
"7.<.<.[ _ _ _ _ _ _ _ _ _ _ _ _ [ <.<.<.<.<.<.[ _ _ _ _ _ _ _ _ _ _ _ _ _ _ _ _ :.<.<.<.<.<.,.' _ _ ^ Q Q Q _ { _ _ _ _ [ <.7.7.",
"o.{ { ( E E E E E E E E E E E E E  .o.{ { o.o._ E E E E E E E E E E E E E E R E _ { { { { o.{ ` E E M j s b R E E E E E ' { { o.",
"o. .o.( E E E E E E E E E E E E `  . .{ { { o._ E -.E E E E E E E E E E E E E E [ o.{ { { o. .` E E V j k n R E E E E E ' { { o.",
"%. . .( E E E E E E E E E E E E ` _ _ _ { { { _ E E E E E E E E E E E E E E E E ' o. .{ { o._ ` E E B j j b E E E E E E ' o. .O.",
"` E E E E E E E E E  . . .' E E J m n b H ` E E E E E E E E E E E E E E E E E E ` E E ` E E E E E E Y Y J U _  . .` E R E E E ;.",
";.E E E E E E E E E _ o.o._ E E I l j j F E E E E E E E E E E E E E E E E E E E E E E R E E E E E E E E E ` { o.{ ` E E E E E -.",
"-.E E E E E E E E E  .o.o.' E E I k j j I E E E E E E E E E E E E E E E E E E E E E E E E E E E E E E E E ` o.o.o.` E E E E E ;.",
"-.E E E E E E E E E ( _ ( ( E E T B V V I E E E E E E ` ( ( E E E E E E R S C V J E E E E E E E E E E E E E ] ] ' ` R E E E E -.",
"-.E E E E E E E E E E E E E E E E E E E E E E E E E E o.o. .' E E E E E Y n j j S E E E E E E E E E E E E E E E E E E E E E E -.",
"-.E E E E E E E E E E E E E E E E E E E E E E E E E ` o. . .' E E E E E Y l j j S E E E E E E E E E E E E E E E E E E E E E E -.",
"-.-.E R R R R R U R R R R R R T R E E E E E E E R E R _ ~ _ P R R R T R I n b b S E E E E E E R R R R R I I D D D I T T R E E -.",
"-.E E J C A C C A C C C A A A C A E E E E E E I C C C A A A A C C A C C C N N N I E E E E E R F C S C C C N d t t m S C I E E -.",
"-.E E J C C C C C C N C C C C C A R E E E E E I C C C N C C C C C C C C C C C C I E E E E E E C C C C C C m r q 9 n N C J E E -.",
"-.E E J C C C C C C C C C C C C A E E E E E E I C C C N C C C C C C C C C C N C I E E E E E E A C C C C C m q r q n C C J E E -.",
"J C A C C C C C N C C C C P _ _ ( A S C S C A n t r p N C C C C C C C C C C C C C A A A A A A C C C C C C N n m n N C C C C C I ",
"D C C C C C C C C C C C C Q O.o._ C C C C C C k r r p N C C N C C C C C C C C C C C C C C C C C C C C C C C C C C C C C N C C F ",
"F C C C C C C C C C C C C U  .%.~ A C C C C C j r r i N C C C C C C C C C C C C C C C C C C C C N C C N C C C C C C C C C C C S ",
"F C C n k k b C C C C C C P _ R P A C C C C C m p p h N C C C C C C C C C C C C L P P I N C C C C C C C C C C C C C C C C C C S ",
"F C N g w r t C C C C C C C C C C C C C C C N C C C C C C C C C C C C C C C C C ~  . .{ N C N C C C C C C C C C C C C C C C C C ",
"J C C h r r p C C C C C C C C C C C C C C C C C C C C C C C C C C C C C C C C C _ o.%._ C C C C C C C C C C C C C C C C C C C F ",
"S C N j r r p N N N N N N N N N N C C C C C C N N N N N N N N N N N N N N N N N P _ _ ( V C C N N N N N N N N N N N N N N C C S ",
"F C C n j j j j j k j j j j j j b N C C C C C m j j j j j j j k j j j j j b j j N C C C C N N n j k k j j j j k j j j j N C C F ",
"F C C n k k j j j j j j j j j j b N C C C C C N j j j j k j j j j j j j j j j j N C C C C C N n j j j j j j j j j j j j n C C S ",
"F C C n j j j j j j j j j j j j b C N C C N N N j j j k j j j j j j j j j j j j m N N N C N N k j j j j j j j j j j j j n C C A ",
"B l l l j j j j j j m N B n j j k b k k k k k k j j m ~ ! ~ m j k j j j j j j j k n n k k n k k j j j j j j j j k P ~ ! C n n B ",
"x k j j k j j j j k N N N N j j j j k j k j j j j j N [ %.%.Z j j j j j j j j j j j j j j j j j j j j j j j j j j / %.:.L j j x ",
"x j k j k k k h j k M V V m j j j j j j j j j j k j m  .%.O.N j j j j j j k j j k j j j k j j k j j j j j j j j k ! k.O.H j j k ",
"x j j m M N m k j k m N N b j j j j j j j j j j j j m ^ ^ ^ M j j j j j j j j j k k k n j j j j j j j j j j j j j P ! / C k k x ",
"x k k H O.O.^ j j j j j j j j j j j j j j j j j j j k j j j j j j j j j j j j j m C N N j j j j j j k j j j h k j j j j j j j k ",
"x j k H O.k.~ j k j j j j j j j j j j j j j j j j j h k k j j j j j k j j k j j B N N N j j j j j j j j j j k k j j j j k j k x ",
"x j k H '  .P h h k j j j j h j j j j j j j j j j j j j j j j j j j j j j j j j n N N N j j j j j j b m n l j h j j j j j j j k ",
"x j k h h p g t y r y r r t i t t j j j j j j g r t y r i i r t t r i r i r t r j k k k j j j i t r Z ' ] ! p r r t r r g j k k ",
"k j j p q q q r r q q q q q r r r j k j j k k p r q r q q q q q q q q r r q q q p k k j j j j r q q S [ O./ y 0 r r r r d k k k ",
"k j k i r q r q q r q r w r r r t j j j j j j p r r q r r q q q q r r q q r q q a j j j j j j r q q C ,.O./ y 0 r r r r u k g B ",
"g d y p p p i q r q r q q k H H N p t i t y y r q q i p p p r q r q r q r q r q t i t i i r i r q r h c c l r r r i p p i i i g ",
"d e q p s j a q r q q r r V l.O.P t r r q q q q q r y s b s i q q r r q q r q r q q q q r r r q r r 0 0 0 r q q r p j s p q r t ",
"d e r p j s p q q r q q 9 M l.&.U i r 9 q r q r q q r j s s i q q r q r r q q q r q q q r r q r q r 0 r r r q r r p j s i r w t ",
"d t r p s s p q r q r r 0 c ) ) P i r r r q r q q q y s s s r q q q r q q r q q q q q r r i r r r q r 0 r 0 r q r p a a y r r f ",
"t r q q q q q r q q r q q q q q q r r q q q r q q q q q q q q q r q q r q r q q r q r r j j s r 0 r q r q r q r r q q r q r 0 f ",
"d r q q q q r r r q r r r r r q r r q r q r r r q q q r r q q q r r q q r r q q q r q i s j s i r q r r r r r r r r r q r q r u ",
"d e q 9 9 q q q q q q q q q q q q q q q r r r r 9 9 9 y y r q 0 q q q q q q q q q r q r s j p r 9 0 9 0 9 q 9 9 9 9 9 9 9 r r d ",
"d r q 9 2 2 2 2 1 2 1 1 1 1 1 1 5 q q q a a s i 2 < 9 s s s 9 2 1 1 1 1 1 1 1 1 9 q r r r r r 5 2 2 2 2 2 2 2 2 2 2 1 1 9 r r d ",
"d r r 5 < < < < < < < < < < < < 2 q q q s s j i < < 9 s j s 9 < < < < < < < > < 9 r q q q 0 0 2 < < < < < < < < < < < < 5 r r f ",
"d r r 5 < < < < < < < < < < < < 2 q q q s s s r < < 5 s s s 5 < < < < < < < < < 9 r r q r 0 0 2 < < < < < < < < < < < < 5 r r f ",
"e 5 5 r i y w < < 4 z v v f < < 1 2 5 5 9 9 9 5 < < 2 9 9 9 5 < < < < < < < < < 2 5 5 5 5 5 2 < < < < < < < < < < < < < 2 5 5 7 ",
"6 < 1 r h j i < < 5 W O.@.v < < < < < < < < < < < < < < < < > < < < < < < < < < < < < < < < < < < < < < < < < < < < < < < < < 6 ",
"6 > 1 r j j i 1 < 4 ) O.k.v < < < < < < < < < < < < < < < < < < > < < < < < < < < < < < < < < < < < < < < < < < < < < < < < < 6 ",
"6 < < 0 p p r < < 4 G W W z < < < < < < < < < > < < < < < < < < < < < < < 5 5 5 < < < < < < < < < < < < < < 7 7 7 2 < < < < < 6 ",
"6 < < < 1 1 1 < < < 4 5 4 4 < < < < < < < < < < < < < < < < < < < < < < 2 p a a 9 < < < < < < < < < < < < 7 _ @.@.u 1 < < < < 6 ",
"6 < < < < < < < < < < < < < < < < < < < < < < < < < < < > < < < < < < < 2 a s j 9 < < < < < < < < < < < < e @.O.l.f < < < < < 6 ",
"8 < < < < < < < < 2 < < < < < < < < < < < < < < < < < < < < < > < < < < 5 p s l 9 < < < < < < < < 1 < 3 3 7 @.l.l.f > < < < < 8 ",
"6 < < $ + + > p y y $ @ + + + + # > < < < < < % + + + + + @ @ @ + + + + # $ % % > < < < < < 1 r u u > + + @ 6 6 8 & + + = < > 6 ",
"6 > < # . . - h j s @ . . . . . + > < < < < < % . . . . . . . . . . . . . . . . - < < < < < 2 a s s > . . . . . . . . . @ < < 6 ",
"8 > < # . . > h s s @ . . . . . + > < < < < < % . . . . . . . . . . . . . . . . - < < < < < 2 a s s > . . . . . . . . . # < < 6 ",
"; @ @ + . . @ 4 4 4 X . . . . . X @ # # # # @ + . . + 4 5 5 @ . . . . . . . . . @ @ $ @ @ @ $ 3 5 1 @ . . . . . . . . . + # # : ",
"& . . . . . . . . . . . . . . . . . . . . . . . . . $ h s s > . . . . . . . . . . . . . . . . . + . . . . . . . . . . . . . . @ ",
"& . . . . . . X . . . . . . . . X . . . . . . . . . $ j h l - . . . . . . . . . . . . . X X . X . . . . . . . . . . . . . . . & ",
"* & & & & & & & & & & & & & & & & & & & & & & & O @ , h j j , & & & & & & & & @ & & & & & @ & & & & & & & & & & & & & & & & & * "
};
