/* XPM */
static char *_c34ced827024fa8f911a3fccf1e5a084yT179GzIm8PJUJ2[] = {
/* columns rows colors chars-per-pixel */
"64 64 174 2 ",
"   c None",
".  c #153202",
"X  c #193504",
"o  c #1C3A03",
"O  c #1F4302",
"+  c #1F4902",
"@  c #1E5505",
"#  c #204602",
"$  c #204902",
"%  c #264B09",
"&  c #255303",
"*  c #285505",
"=  c #235C04",
"-  c #2C5D05",
";  c #2D5F09",
":  c #274912",
">  c #2C4C16",
",  c #2C471A",
"<  c #2C4B19",
"1  c #2F5517",
"2  c #2F5419",
"3  c #305916",
"4  c #305419",
"5  c #256505",
"6  c #2D6203",
"7  c #266D05",
"8  c #2E6804",
"9  c #2C6D0D",
"0  c #306502",
"q  c #326901",
"w  c #267205",
"e  c #2E7906",
"r  c #297309",
"t  c #357506",
"y  c #387704",
"u  c #367906",
"i  c #387C06",
"p  c #367608",
"a  c #377908",
"s  c #3A7D09",
"d  c #2C6411",
"f  c #3A6815",
"g  c #3E6C19",
"h  c #3B522E",
"j  c #3F5F2D",
"k  c #407317",
"l  c #407318",
"z  c #338406",
"x  c #3B8306",
"c  c #358D05",
"v  c #3E8B06",
"b  c #3C8409",
"n  c #3E8908",
"m  c #369505",
"M  c #3F9206",
"N  c #379D05",
"B  c #389D06",
"V  c #3F9608",
"C  c #3D9D0D",
"Z  c #37A604",
"A  c #39A505",
"S  c #3BA609",
"D  c #408E06",
"F  c #418D09",
"G  c #429306",
"H  c #449C07",
"J  c #429108",
"K  c #459909",
"L  c #4A9D09",
"P  c #4F991B",
"I  c #509A1B",
"U  c #46A607",
"Y  c #46A40A",
"T  c #4BA409",
"R  c #4EAC09",
"E  c #51A60A",
"W  c #53AD0A",
"Q  c #4AB107",
"!  c #4DB209",
"~  c #4CBC08",
"^  c #51B20A",
"/  c #58B709",
"(  c #54BB09",
")  c #59BD0A",
"_  c #54AC13",
"`  c #5EB51D",
"'  c #4EC607",
"]  c #4EC209",
"[  c #51CF07",
"{  c #56C209",
"}  c #5CC30A",
"|  c #52CD0A",
" . c #5FCA0A",
".. c #5DDE07",
"X. c #52D009",
"o. c #5CD508",
"O. c #5EDC08",
"+. c #60CB0B",
"@. c #63D30A",
"#. c #64DA0A",
"$. c #69DF0B",
"%. c #60C116",
"&. c #5EE107",
"*. c #5FE009",
"=. c #61E907",
"-. c #61E608",
";. c #6DE60C",
":. c #62E908",
">. c #6EEB0B",
",. c #72ED0C",
"<. c #79EE0E",
"1. c #73F50C",
"2. c #7EF70F",
"3. c #77F411",
"4. c #82F80F",
"5. c #83F211",
"6. c #8FF713",
"7. c #82F810",
"8. c #8BF912",
"9. c #8CF718",
"0. c #8FF81A",
"q. c #91F714",
"w. c #96FA15",
"e. c #98FA16",
"r. c #91F91C",
"t. c #9DFC18",
"y. c #A5FD19",
"u. c #AAFF1A",
"i. c #AAFE1C",
"p. c #ABFD1F",
"a. c #ABFE1F",
"s. c #ACFD1F",
"d. c #ACFC1E",
"f. c #ACFE1F",
"g. c #96F821",
"h. c #95F924",
"j. c #98F926",
"k. c #9FF92D",
"l. c #ABFD20",
"z. c #AAFD20",
"x. c #ACFE20",
"c. c #ACFD20",
"v. c #ADFD25",
"b. c #AEFD25",
"n. c #AFFD29",
"m. c #AEFC2B",
"M. c #B1FD2D",
"N. c #A6F938",
"B. c #B2FB31",
"V. c #B0FD30",
"C. c #B1FD32",
"Z. c #B3FC34",
"A. c #B5FC36",
"S. c #B1FA3F",
"D. c #B7FB3E",
"F. c #B5FD3D",
"G. c #B8FC3F",
"H. c #B2FA43",
"J. c #B6FD40",
"K. c #B7FB45",
"L. c #BAFB43",
"P. c #BEFB44",
"I. c #B8FC42",
"U. c #BBFB4A",
"Y. c #BBFC4A",
"T. c #BCFC49",
"R. c #BCFC48",
"E. c #BCFC4B",
"W. c #BDFB4E",
"Q. c #BBFA50",
"!. c #BEFB51",
"~. c #BCFC52",
"^. c #C0FC54",
"/. c #C5FB64",
/* pixels */
"      P.f.f.f.f.f.M.      /.a.f.f.f.f.f.              B.u.f.f.f.f.G.      Z.f.f.f.f.a.L.      I.f.f.f.f.f.v.      A.a.a.f.f.f.b.",
"      L.a.u.u.u.u.v.      !.u.u.u.u.u.u.              M.u.u.u.i.u.B.      C.f.u.u.u.u.G.      G.u.u.u.u.f.v.      C.a.u.u.u.u.f.",
"      J.u.y.u.u.u.v.      Q.u.u.y.u.u.u.              m.u.y.u.u.u.C.      B.u.u.u.y.y.F.      F.u.u.u.u.u.v.      C.u.u.u.u.u.l.",
"W.T.L.N.8.8.8.8.8.6.S.T.U.N.8.8.8.8.8.8.H.E.T.T.T.T.S.0.8.8.8.8.q.j.W.T.Q.r.8.8.8.8.8.e.T.W.H.h.8.8.8.8.8.r.K.E.^.j.8.8.8.8.8.9.",
"a.u.u.6.1.1.1.1.1.1.t.u.a.q.1.1.1.1.1.1.t.u.u.u.u.u.y.1.1.1.1.1.1.4.a.y.y.2.1.1.1.1.1.4.u.u.t.2.1.1.1.1.1.2.y.u.u.7.1.1.1.1.1.3.",
"a.u.u.6.1.1.1.1.1.1.y.u.u.8.1.1.1.1.1.1.t.u.u.u.u.a.t.1.1.1.1.1.1.4.u.y.y.7.1.1.1.,.1.4.u.u.t.2.1.1.1.1.1.2.y.y.u.7.3.1.1.1.1.3.",
"e.e.e.5.,.;.;.;.;.;.6.e.e.7.,.>.>.>.>.>.8.e.w.w.e.w.q.,.>.>.>.>.>.<.e.e.e.<.,.;.>.>.>.<.e.e.6.>.>.;.;.>.;.,.e.e.e.<.;.;.;.;.;.;.",
"3.1.1.#. . . . . .+.>.1.1.;. . . . . . .,.1.1.1.1.1.,.@.@. . . .+.#.1.1.1.@. .+.+.+.+.@.1.1.>.@. . . . . .@.1.1.1.@. . . . . .+.",
"1.1.1.$. .+.+.+.+. .>.1.1.$.+.+. .+. . .>.1.1.1.1.1.>.@. . .+.+.+.#.1.1.1.@.+.+.+.+.} #.1.1.1.@. .+.+. . .@.,.1.1.@. . .+. . .%.",
",.1.1.$.} +.} }  . .;.1.1.-.+.+. . . . .>.1.1.1.1.1.>.@.+. . .+.+.@.>.,.,.+.+.} +.+.+.@.,.,.>.@. . .} +. . .1.1.1.@. . . . . .+.",
"@.@.@.) W W W W W W +.@.@.+.+.}  .+. . .@.@.@.@.@.@.@.+. . .+.} +.} / ^ W W W W } +.} @.@.@.+./ W W W W W ^ +.@.@./ W W W W W W ",
"%.+.+./ E E E E E E } +. .+.+.+. . . . . . .+. . . .+.} +. .+.+.+.} E E E E E E ) +.} +.+.+.} W E E E E E W  . . .^ E E E E E E ",
"+.+.+./ E E E E E E } +. .+. .+.+. .+. .+.+.+.+. .+. . .+.+.+.+.+.) E E E E E E ) +.+.+.+. .} W E E E E E W }  . .W E E E E E E ",
"%.} ) W L L L L L L / } ) ) } ) } o.#.o.} ) ) / ^ ^ ^ ^ ^ ^ ) ) ) / L L L L L L / ) ) } } ) / E K L L L L T ) ) ) W W W W E W _ ",
"` ^ ^ T J G J F G G R W ^ ^ ! ! { -.:.:.{ ^ ^ R D J D G D D R ^ ^ R D F J J J J T ^ ^ ! ! ^ R G J J D J J K ! ^ ^ ^ ^ ^ ^ ^ / ` ",
"` ^ ! L F G J D G D R ^ ^ ^ ^ ^ ( -.:.:.( ^ ^ E J D J D D F R ^ ^ R D J J J J J T ^ ^ ^ ^ ^ R G J J J J F K W ^ ^ ^ ^ ^ ^ ^ ^ ` ",
"` ^ ^ T K K L T T T ! ! ^ ^ ^ ^ ( o.O.o.( ^ ^ T J F J G F J L T T T K K K U T T R ^ ^ W T T Y K L J K K K K ^ ^ ^ ^ ^ ^ ^ ^ ^ ` ",
"` ^ ^ ^ R R ( *...#.( ^ ^ ^ ^ ^ ^ ( ( ( ^ ^ ^ R J D J J D D x s s n W ! ! o.&...{ ^ ^ T a a b T W W W W R ! ^ ^ ^ ^ ^ ^ ^ ^ ^ ` ",
"` W ^ ^ ^ ^ { :.=.-.{ ^ ^ ^ ^ ^ ^ ^ ^ ^ ^ ^ ^ T F J D G J J s p p b ^ ^ ^ &.:.:. .! ^ T p p s T ^ ^ ^ ^ ^ ^ ^ ^ ^ ^ ^ ^ ^ ^ ^ ` ",
"` ^ ^ ^ ^ ^ { :.=.=.( ^ ^ ^ ^ ^ ^ ^ ^ ^ ^ ^ ^ T G J F G J F i p p b ^ ^ ^ O.:.=. .^ ^ T p p s T ^ ^ ^ ^ ^ ^ ^ ^ ^ ^ ^ ^ ^ ^ ^ ` ",
"` ^ ^ ^ ^ ^ ( { { ( ^ ^ ^ T J K K K K J R ^ ^ ! R R W R R R R T T T ^ ^ ^ ( { ( ^ ^ ^ ! T T T R ^ ^ ^ ^ R ( #.&.*.{ ^ ^ K i x s ",
"` ^ ^ ^ ^ ^ ^ ! ^ ^ ^ ^ ^ T D D D F J J R ^ ^ ^ ^ ^ ^ ^ ^ ^ ^ ^ ^ ^ ^ ^ W ^ ^ ^ ! ^ ^ ^ ^ ^ ^ ^ ^ ^ ^ ^ ^ ( :.:.:.{ ! ^ G p p p ",
"` ^ ! ^ ^ ^ ^ ^ ^ ^ ^ ^ W T J J F D J J R ^ ^ ^ ! ^ ^ ^ ^ ^ ^ ^ ^ ^ ^ ^ ^ ! ^ ^ ^ ^ ^ ^ ^ ^ ^ ^ ^ ! ^ ^ ^ ( &.:.:.{ R ^ F p p p ",
"` ^ ^ T K K L ^ ^ W ^ ^ ^ T F G F J F J R ^ ^ (  .| } ^ ^ ^ ^ ^ ^ ^ ! ^ ^ ^ ^ ^ ^ ^ ^ ^ T T T T T T R ^ ^ ( | | | ! T _ K F F F ",
"` ^ ^ J p p b ^ ^ ^ ^ ^ ^ T D F J D J J R ^ ^  .&.=.&.{ ^ ^ ^ ^ ^ ^ ^ ^ ^ ^ ^ ^ ^ ^ ^ T J J J F J D T W ^ R J D J J F G T ^ ^ ^ ",
"` ^ _ K p p b ^ ^ ^ ^ ^ W T D G J J J D R ^ ! } &.=.&.( ^ ^ ^ ^ ^ ^ ^ ^ ^ ^ ^ ^ ^ ! ^ R J J J J J J L ^ ^ W J G F J J J L ^ ^ ^ ",
"` R R F p p b T T T R R R Y G J D D J J H H K ~ o.O.o.~ R R R T T T T T T R R R ! ( ( R v n n n v v H R R R v v F b n n K R W _ ",
"P K K b t t p p a a J G G G V G G G G K 8 6 - t H G G G G G i u s p s a p V J K ~ | | ] p p t t t t x K G D y t p p p t x G G I ",
"P F G x t t t p p u v K G G G G G G G G q - 5 q G V G G G G i t t u t t a v V J ~ [ [ ~ t t t t t t x G G D t t p p p p x G G P ",
"P J G x t t t p t t v G G G G J G G G J 8 6 6 8 G G G G G G i t t t t t u v G J ~ [ [ ] t t t t p t x G G v t t t p t t x G G P ",
"P J J b t p t t t t v J G U ] ~ ~ H G G x x x v G G G G G G i t t t t t y 8 q t M U U H n n n n n n F G G v n v n n v n v G G P ",
"P J K b t t t t t t M G J R [ [ ' H G G G M G G G G G G G G i t t t t t t 6 - 5 i G G G G M G M G G G G G G G G V G G G G J G I ",
"I G G x t t t t t t v G J U [ [ ' Y J G V J J J G G G G G G i t t t t t t 5 - - i G G G G G G G G G G G G G G G G G G G G G G I ",
"I G G n i i i i i i D G K T ' ] Q G v v v v v v G G G G G G x i s s i i i t q 8 x G G G G G G G G G v x x z G G G G G G H U U _ ",
"I G G G G G G G G G G G G G G G v u t t t t t s G G G G G G G J V J G J G G V G G G G G G G G G G G t 6 - 8 G G G G G G ! | [ X.",
"I G G G G G G G G G G G G G G G v a t p a t t s G G G G G G G G M G G G G G G G G G G G G G G G G G t = 6 8 M G G G G G ! | X.X.",
"I G G G G G G v v v G G G G G G v u t t t p t b Y H H G v D D D D D G G G G G G G G G G G G G H H H u 6 6 8 v v M v v v R ' ' | ",
"I G G G G G v 6 8 8 v G G G G G v i t p e p t V ' ' ~ x a a a u y x G G G G G G G G G G G G H ~ ' ' U v v x u u u s i a n Y L Y ",
"P G G G G G x 5 6 6 v G G K G G v t t p u t t V [ [ ~ z t t t p t i G G G K H G G G G G G G H ' [ [ Q G V v u t t t t p x V V J ",
"P G G G G G i 6 = - v G G G G G v u t t t t t V [ [ ] x t t t t t i M M G G G G G G G G K G K ] [ [ R M G v t t t p t t x J J J ",
"Y N B M p y t 6 6 q q y y y y y t t q q q t q i D G v 6 6 6 - ; - - - - 6 t t t q q q 8 q q t n M G n y k y - 6 - 6 6 6 8 a a s ",
"S A A c q q q q q q q q q q q q q q q q q q q q q q 6 * * * * * * & O # O 0 q q - * * * * * * 0 q q q q q 0 * * * * * * ; q q q ",
"S Z Z m q q q q q q q q q q q q q q q q q q q q q q q * * * * * * & # O # 6 q q ; * * * * * * 6 q q q q q q * * * * * * - q q q ",
"C m N z 0 0 6 0 0 6 q q q q q q q q q q 6 6 6 6 q q 0 - - * 6 9 8 - $ $ $ 6 q q - * * * * * * 0 q q q q q 0 * * * * * * - ; 0 0 ",
"k q q - * * * % * * 6 q q q q q q q q q $ O O $ q q q q q q m Z A m 8 q q q q q - % * * * * * q q q q q q q q q q q q q * # O # ",
"k q q - * * * * * * 0 q q q q q q q q q $ # # & q q q q q q m Z A m q q q q q q - * * * * * * 6 q q q q q q q q q q q q * # O O ",
"k q q - * * * * * * 0 q q q q q q q q q $ $ # * q q q q q q c N N m q q q q q 8 - * * * - * - 0 q q q q q q q q q q q q * # # % ",
"l q q - * * * * * * 0 q q q q q q q q q q - - 0 q q q q q q t t t t q q q 6 - 6 - - - - 6 6 0 0 q q q q q q q q q q q q q - * k ",
"l q q 6 * * * * * * 0 q q q q 0 q q q q q q q q q q q q q q q q q q q q 8 - ; - ; ; ; 6 q q q q q q q q q q q q q q q q q q q k ",
"l q q - * * * * & * 0 q q q q q q q q q q q q q q q q q q q q q q q q q q ; ; ; ; ; ; 6 q q q q q q q q q q q q q q q q q q q k ",
"k q q q - 6 6 6 - 6 * * & - q q q q q q x c c u - - - - - - 0 q q q q q q - ; - - ; ; * & & * 6 0 6 6 6 0 0 q q q z v c i q q l ",
"k q q q q q q q q 0 # # O * q q q 0 q q N Z A z * * & * * * 6 q q q q q 0 6 ; - ; - 6 * O O $ - ; - ; - ; - q q q m Z Z c q q l ",
"l q q q q q q q q 0 # O O * q q q q q 0 B Z A z * * * * * * 6 q q q q q q 6 ; ; ; ; - - O O $ * ; ; ; ; ; ; q q 8 m S Z c q q l ",
"g 0 0 0 0 - 0 6 0 0 # O O % - - 6 6 6 0 m m m e & $ & % % % - 6 6 0 0 - 6 * - - * ; * * # # # * * * * * * * - 0 8 c m m z 6 6 g ",
"4 $ $ $ % # $ $ # # o o o o o o o $ # $ + & & O o o o o o o # # $ $ # $ $ $ + $ $ $ + + # # # o o o o o o o $ $ $ $ & $ $ $ $ 4 ",
"4 $ $ $ # # $ $ # # o o o o o o o # $ + + + $ o o o o o o o O # $ # $ $ + $ $ $ + + $ + $ # # o o o o o o o # $ + $ $ $ $ $ # 4 ",
"3 + + O + + O + # # o o o o o o o # $ $ $ + + O o o o o o o O $ $ $ + + + O + + $ + # O $ $ # o o o o o o o + O $ # $ $ $ $ $ 1 ",
"9 5 5 @ . . o + # # o o o o o o o # $ $ $ # $ # # # o O O O O # # & 5 5 5 & + + $ # $ $ + $ # O o O O O O O X X X o o o O o o > ",
"r w w @ X . X + $ $ O o o o o o o + + $ # $ # # # # + $ O $ $ + # = w w w $ $ + $ + $ $ $ # $ $ $ $ + O O O . . . X o o o o o , ",
"r w w @ . . X # # # o o X o X o o + # $ $ + + $ # # $ # + + + + # & w w 7 & # $ $ + $ O $ + $ $ $ $ + + + O . . . X o o o o o , ",
"d @ 5 @ o o O $ # # O O o O O O # # # # $ # $ $ $ $ O o o X o + + $ = = = $ $ + $ $ $ $ $ $ $ = 5 = & + $ # o o o o o o o o X , ",
"1 + + O $ # # # $ # # # # # # # $ # + # $ + $ $ # $ O . . . O O $ $ $ $ + $ $ $ $ $ $ $ $ $ $ 7 w w = O $ # $ # % o X o o o o , ",
"4 $ $ $ $ $ $ $ $ $ % % # # # # $ $ # $ $ $ $ $ + + O . . . O $ $ $ $ $ $ # + $ $ $ $ $ $ $ & 7 w w = $ $ $ # # # o o o o o o , ",
"j 4 4 4 4 4 4 4 4 4 4 4 4 4 4 4 4 4 4 4 4 4 2 2 1 2 > . . . : 4 4 1 4 4 4 4 4 1 4 4 4 4 4 4 3 9 r r d 1 4 4 4 1 4 < , , , , , h "
};
