/* XPM */
static char *aa1499c0bf604e2da210fd08b3fd622dCJO8C0fGph3CmmI3[] = {
/* columns rows colors chars-per-pixel */
"64 64 138 2 ",
"   c None",
".  c #585858",
"X  c gray35",
"o  c #5A5A5A",
"O  c #646464",
"+  c #656565",
"@  c gray40",
"#  c DimGray",
"$  c #6C6C6C",
"%  c #6D6D6D",
"&  c gray43",
"*  c #717171",
"=  c #727272",
"-  c gray45",
";  c #747474",
":  c gray46",
">  c #767676",
",  c #777777",
"<  c #797979",
"1  c gray48",
"2  c #7B7B7B",
"3  c #7C7C7C",
"4  c #7E7E7E",
"5  c gray50",
"6  c #808080",
"7  c #818181",
"8  c #838383",
"9  c #848484",
"0  c gray52",
"q  c #868686",
"w  c gray53",
"e  c #888888",
"r  c #898989",
"t  c gray54",
"y  c #8B8B8B",
"u  c gray55",
"i  c #8D8D8D",
"p  c #8E8E8E",
"a  c gray56",
"s  c #909090",
"d  c gray57",
"f  c #929292",
"g  c #939393",
"h  c gray58",
"j  c #959595",
"k  c gray59",
"l  c #979797",
"z  c #989898",
"x  c gray60",
"c  c #9A9A9A",
"v  c #9B9B9B",
"b  c gray61",
"n  c #9D9D9D",
"m  c gray62",
"M  c #9F9F9F",
"N  c #A0A0A0",
"B  c gray63",
"V  c #A2A2A2",
"C  c gray64",
"Z  c #A4A4A4",
"A  c #A5A5A5",
"S  c gray65",
"D  c #A7A7A7",
"F  c gray66",
"G  c #A9A9A9",
"H  c #AAAAAA",
"J  c gray67",
"K  c #ACACAC",
"L  c gray68",
"P  c #AEAEAE",
"I  c #AFAFAF",
"U  c gray69",
"Y  c #B1B1B1",
"T  c #B2B2B2",
"R  c gray70",
"E  c #B4B4B4",
"W  c gray71",
"Q  c #B6B6B6",
"!  c #B7B7B7",
"~  c gray72",
"^  c #B9B9B9",
"/  c gray73",
"(  c #BBBBBB",
")  c #BCBCBC",
"_  c gray74",
"`  c gray",
"'  c gray75",
"]  c #C0C0C0",
"[  c #C1C1C1",
"{  c gray76",
"}  c #C3C3C3",
"|  c gray77",
" . c #C5C5C5",
".. c #C6C6C6",
"X. c gray78",
"o. c #C8C8C8",
"O. c gray79",
"+. c #CACACA",
"@. c #CBCBCB",
"#. c gray80",
"$. c #CDCDCD",
"%. c #CECECE",
"&. c gray81",
"*. c #D0D0D0",
"=. c gray82",
"-. c #D2D2D2",
";. c LightGray",
":. c gray83",
">. c #D5D5D5",
",. c gray84",
"<. c #D7D7D7",
"1. c #D8D8D8",
"2. c gray85",
"3. c #DADADA",
"4. c gray86",
"5. c gainsboro",
"6. c gray87",
"7. c #DFDFDF",
"8. c #E1E1E1",
"9. c #E2E2E2",
"0. c #E4E4E4",
"q. c gray90",
"w. c #E6E6E6",
"e. c #E7E7E7",
"r. c gray91",
"t. c #E9E9E9",
"y. c gray92",
"u. c #ECECEC",
"i. c #EFEFEF",
"p. c gray94",
"a. c #F1F1F1",
"s. c gray95",
"d. c #F3F3F3",
"f. c #F4F4F4",
"g. c gray96",
"h. c gray97",
"j. c #F8F8F8",
"k. c #F9F9F9",
/* pixels */
"i y i y y i y y y i y i y y y i y i y y y i y i y y y i y i y y y i y i y y y i y i y y y i y i y y y i y i y y y i y i y y y i ",
"y y y y y y y y y y y i y y y y y y y y y y y i y y y y y i y y y y y i y y y y y y y y y y y i y y y y y i y y y y y i y y y y ",
"s i i i i s i i i i i i i i i i i s i i i i i i i i i i i i s i i i i i i i i i i s i i i i i i i i i i i i s i i i i i i i i i ",
"b b b b b b b b v v b b b b b v b b b b v v b b b b b v b b b b v v b b b b b v b b b b v v b b b b b v b b b b v v b b b b v b ",
"                                                                                                                                ",
"                                                                                                                                ",
"o...........................................................................................................................o.o.",
"` ` ` ` ` ` ` ` ` ` ` ` ` ` ` ` ` ` ` ` ` ` ` ` ` ` ` ` ` ` ` ` ` ` ` ` ` ` ` ` ` ` ` ` ` ` ` ` ` ` ` ` ` ` ` ` ` ` ` ` ` ` ` ` ",
"] ` ] ` ] ` ` ` ] ] ` ] ` ` ` ` ` ] ` ` ` ` ` ] ] ` ] ` ] ` ] ` ] ` ` ` ` ] ` ` ` ` ] ` ` ] ` ` ] ` ] ` ` ` ` ` ` ] ` ] ` ` ` ` ",
"` ( ( ( ( ( ( ` ( ( ( ( ` ( ( ` ( ( ` ( ( ` ( ( ( ( ( ( ( ( ( ` ` ( ( ` ( ( ` ( ( ( ( ` ( ( ` ( ( ( ( ( ( ( ` ` ( ( ( ( ` ( ( ` ",
"N b N N N N b N N N N N N N b N N N N b b N N N N N N N N N b N N N b N N N N b N N b N N N N b N N N N N N b N N N N N N N b N ",
"b b v v v v v v v v v v v v b b v v b v b b v v v v v v v v v v v v b b b b b v v v b b b b b v v v v v v v v v v v v v v b b b ",
"b v v v v v v v v v v v v v v v v v v v v v v v v v v v v v v v v v v v v v v v v v v v v v v v v v v v v v v v v v v v v v v v ",
"q 4 4 4 7 7 4 4 4 4 4 7 4 4 4 4 7 7 4 4 4 4 4 7 4 4 4 4 4 7 4 4 4 4 7 7 4 4 4 7 4 4 7 7 4 4 4 7 4 4 4 4 4 7 4 4 4 4 4 7 4 4 4 q ",
"O X X X X X X X X X X X X X X X X X X X X X X X X X X X X X X X X X X X . X X X X X X X . X X X X X X X X X X X X X X X X X X O ",
"O X X X o o o X X X o o o X X X o o X X X X X X X X X X X X X X X X X o X X X X X X X o X X X X X X X X X X X X X X X X X X X O ",
"7 , < , , < < , < , , < < , < < , , < , $ # # = 7 7 4 4 4 7 < < < < , , < < , , < < , < < < , , , , $ # # $ 4 7 7 7 4 7 7 7 7 y ",
"..] ] ] ] ] ] ] ] ] ] ] ] ] ] ] ] ] ] ] b j s L 9.e.e.e.9.e.o.] ] ] ] ] ] ] ] ] ] ] ] ] ] ] ] ] ] ..J s j b 5.e.9.e.e.e.:.o.o...",
":.-.-.-.-.-.-.-.&.-.-.-.-.-.-.&.-.-.-.-.J v b ( j.j.j.j.j.j.5.-.-.-.&.-.-.-.-.-.-.-.-.&.-.-.-.-.-.&.T v v J p.j.j.j.j.j.9.&.-.-.",
":.-.-.-.-.-.-.-.-.-.-.-.:.-.-.-.-.-.-.-.D v v ( j.j.j.j.j.j.4.-.-.-.-.-.-.-.-.:.-.-.-.-.-.-.-.-.-.-.T v v J p.j.j.j.j.j.e.-.-.-.",
"( E T T T T E T E E ` ] ] ] ] ] L y 7 7 s b b ( j.j.r.` ( ( T T T T E T T ` ] ] ] ] ] ` T T J q 4 7 i b b J p.h.j.&.E ( E E ( ( ",
"T L L L L L L L L L ( ` ] ` ` ` L < = = s b v ( j.j.r.E J L L L L L L L L ( ` ` ` ` ` ` L L N 4 = = y v v J p.h.j...L L L L L T ",
"T L L L L L L L L L ( ` ` ` ` ` J < = = i v v ( j.j.r.T L L L L L L L L L ( ` ` ` ` ` ( L L N < = = y v v J i.h.j...L L L L L T ",
"T L L L L L T E E E ( ` ` ` ( E J i q q j v v T e.e.4.T L L L L L L E E T ( ` ` ( ( E E L L J i q q s v v D 9.e.r.] L L L L L T ",
"E L L L L L T ] ` ` ` ` ` ( J L L L L L N b b L -.&.o.T L L L L L T ` ` ` ` ` ` T L L L L L L L L L N v b N &.-.-.( L L L L L T ",
"T L L L L L T ` ` ` ` ` ] E L L L L L L b v b L -.-.o.L L L L L L T ` ` ` ` ` ` T L L L L L L L L L N v b D o.-.-.E L L L L L T ",
"T L L T L T T ` ` ` ( ( ( E L L J N N b b v v L -.-.o.T L L L T L T ` ` ` ( ` ( T L L L L L J N N b v v v N o.-.-.( L L L L L E ",
"T L L E ` ( ` ` ` ` T L L T L L b < = , s v v L &.-.o.T L L ( ` ` ` ` ` ` T L L L L L L L L D < = , y v v D &.&.-.E L L L L L T ",
"E L L E ` ` ` ` ` ` L L L L L L b < = , i b v L -.-.&.L L L E ` ` ] ` ` ( T L L L L L L L L N 4 = = y v v N &.-.-.E L L L L L E ",
"T L L E ` ` ` ` ` ` T L L L L L b < = = s b v L -.&.o.L L L ( ` ` ` ` ` ` L L L L L L L L L D < = = y v v N &.-.-.( L L L L L T ",
"` ( ( ( ` ` ( T T T L L L L L L J N b N b b v L -.-.o.` ( ( ( ` ` ( T L T L L L L L L L ( ( E J J J N v b D o.-.-.E L L L L L E ",
"] ] ` ` ` ` ( J J L L L L L L L L L L L N b v L &.-.&.` ` ` ` ` ` ( L L L L L L L L L L ` ` ` ` ` ` J v b N &.-.-.( L L L L L T ",
"] ` ` ` ` ] ( L L L L L L L L L L J L L b v v L -.-.&.` ` ` ` ` ` E L L L L L L L L L T ` ` ` ` ` ` J v v N &.-.&.E L L L L L E ",
"] ` ` ` ( E E L L L L L L L L L D v v v b v v L -.-.o.( E ( E ( ( E L L L L L L T E T T ` ` ( L D N b v v D &.&.-.( L L L T T ( ",
"..` ` E L L L L L L L L L L L L b < = = s b v L -.&.o.T L L L L L L L L L L L L E ` ` ` ` ` E 7 = = i v v N &.&.-.( L L E ` ` ` ",
"] ` ` E L L L L L L L L L L L L b < = = s v v L -.-.o.T L L L L L L L L L L L L ( ] ` ` ` ` E q = = y v v D o.-.-.E L L E ` ` ` ",
"] ` ( T L L J L L L L J L L L L N < , , s v v L o.&...L L L L L L L L L L L L J E ` ` ` ` ` E q , = i v v N ..&.&.( J L E ` ( ` ",
"J N N N N b b N b N N b N b b N b j s s v v v b D D D b N b b N N b N b b N N b N N N N N N N j s s j v b b D D D N b b N N N D ",
"N v b b v v v v v v b b v v v v v b b b v v v v v v v v v v v v v v v v v v b b v v v v b v v v b v v v b v v v v v v v b b v N ",
"N v v v v v v v v v v b b b b b v v v v v v v v v v v v v v v v v v v v v v v v v v b b b b b b b b v v b b v v v v v v v b b N ",
"..] ` ` ] ` T v b b &.4.:.4.4.4.-.] ` ] ` ` ` ] ` ` ` ` ` ` ` ` ` ` ` ] ( N b v ] 4.4.:.4.4.-.] ` ` ` ` ` ` ` ` ` ` ` ` ` ` ` ] ",
":.-.&.-.-.-.` v b b e.h.j.j.j.j.p.:.-.-.-.-.-.-.-.-.-.-.-.-.-.&.-.-.-.-.&.D b v 4.j.j.j.j.j.h.4.-.-.-.-.-.-.-.-.&.-.-.-.-.-.-.:.",
":.-.-.-.-.-.` v v b e.j.j.j.j.j.p.:.-.-.-.-.-.&.-.-.-.-.-.-.-.-.-.-.-.-.o.D v v 4.j.j.j.h.h.p.4.-.-.-.-.-.-.-.-.-.-.-.-.-.-.-.:.",
"&.....] ( ( L v v b e.j.j.p.r.r.9.o.o.o...o.o...o.o.o.o.o.&.o.&.o.o.E ( ( N v b 4.j.j.h.e.e.9.-.o...o.o.....o.....o...o.o.&.o.-.",
"T L L s = = 4 v v b e.j.j.:.L L L L L L L L L L L L T ( ` ` ` ` ` J = = = s v b 4.h.j.i.J L L L L L L L L L L L L L L L E ` ` ] ",
"T L L s = = 4 v b N e.j.j.4.L L L L L L L L L L L L T ` ` ` ` ` ` J = , , j b b 4.j.j.r.L L L L L L L L L L L L L L L L E ` ` ..",
"E L L s < 4 q v b b 9.p.p.:.L L L L L L L L L L T L T ` ` ` ` ( ( J < < < j b v :.p.p.e.J L L L L L L L L L L L L L L T E ` ` ] ",
"T L L D b b b v b b o.:.4.o.L L L L L L L L L T ( ( ( ` ` ` E L L J b N b b v v ] 4.4.-.L L L L L L L L L L L L J ( ` ` ` ` ` ..",
"E L L L L L J v v b ..-.&.] L L L L L L L L L E ` ] ` ` ` ` T L L L L L L b b v ` -.-.o.L L L L L L L L L L L L L ( ` ` ` ] ` ] ",
"T L L L L L D v v b ..-.-.] L L L L L L L L L T ` ` ` ` ` ` T L L L L L L b v v ` -.-.&.J L L L L L L L L L L L L E ` ` ` ` ] ] ",
"E L L v q q i v v b ..-.-...L L L L L L T E ( E ` ` ` E E E L L L N q q y j v v ` -.-.o.L L L L L L L L L L E E E ` ` ` ( E E ( ",
"T L L i = = 4 v v b ..-.-.] L L L L L L ( ` ` ` ` ` ( L L L L L L v = = , s v v ` -.&.&.L L L L L L L L L T ` ` ] ` ` ` E L L E ",
"E L L s = = 4 b v b ..-.-.] L L L L L L ( ` ` ` ` ` ( L L L L L L v = = , s b v ` -.-.o.L L L L L L L L L L ( ` ` ` ` ` E L L E ",
"T L L j 4 4 q v v v ..-.&.] L L L L T T ( ` ` ` ( ( ( L L L L L L b 7 7 7 v b v ` -.-.&.L L L L L L T L T T ` ` ` ( ( ( T L L T ",
"E L L L J J D v v b ..-.-.] L L L ` ` ` ( ` ` ( L L L L L L L L L T ( ( E N v v ` -.&.o.L L L L L L E ` ` ` ` ` ` T L T L L L E ",
"T L L L L L D v b b ..-.-.] L T T ( ` ` ` ` ` E L L L T L L L L L E ` ` ` N v v ` -.-.&.L L L L L L ( ` ` ` ` ` ` T L L L L L T ",
"E L L L J J D v b b ..-.-.] L L T ( ` ` ` ` ` ( L L L L L L L L L E ` ` ` D v v ` -.-.&.J L L L L J E ` ` ` ` ` ` T L L L L L T ",
"T L L j 7 7 y v b b ..-.-...( ( ( ` ` ` E L T L T L L L L L E E ( L y y y j v v ` -.-.o.L L L E ( ( ` ` ` ` T T T L L L L L L E ",
"E L L s = = 7 v b b ..-.-.o.` ` ` ` ` ` T L L L L L L L L L ( ` ` J = = , j v v ` -.-.o.L L L ( ` ` ` ` ` ( L L L L L L L L L T ",
"T L L s = = 4 b v b ..-.-...` ` ` ` ` ` T L L L L L L L L L ( ` ` J = = = s v v ` -.-.&.L L T ( ` ` ` ` ` ( L L L L L L L L L E ",
"J D N j q q i v v b T E E T L J L J L L J N D N D N D N N D J J L N q q y j v v L E E E N N D J J L J L J J D N N D D N D N D J ",
"N b v b v v b v v v v b b v v b b b v b v v v v v v b b v v v v v v v v v v v v b v b b b v v v v v b v v v v v b v v v v v v N ",
"N v v v v v v v v v v v v v v v b b b b v v v v v v v v v v v v v v b v b b v v v v v v b b v v v v v v v v v v v v v v b b v N ",
"J D N N D N N D N N D N N D N N N N D N N N D N N D N N D N N D N N N D N N N N D N N D N N D N N D N N D N N D N N D N N N N J "
};
