/* XPM */
static char *_653c1a9398042ebce3940bb0e0785f1YYlcC5AX9IPTlNGQ[] = {
/* columns rows colors chars-per-pixel */
"64 64 211 2 ",
"   c None",
".  c #14283A",
"X  c #1C3534",
"o  c #1F3B2F",
"O  c #213E2C",
"+  c #264526",
"@  c #284B3A",
"#  c #2C5132",
"$  c #305432",
"%  c #45663C",
"&  c #142842",
"*  c #132741",
"=  c #1E3B4C",
"-  c #1B385E",
";  c #1A3454",
":  c #253B4C",
">  c #1D3C64",
",  c #234244",
"<  c #2E4C57",
"1  c #37685C",
"2  c #254264",
"3  c #264469",
"4  c #344C6B",
"5  c #374B66",
"6  c #2B5263",
"7  c #234878",
"8  c #355072",
"9  c #3C5474",
"0  c #365E7F",
"q  c #34586A",
"w  c #38686A",
"e  c #3A6478",
"r  c #3D756A",
"t  c #4C5458",
"y  c #5B5E5D",
"u  c #40484C",
"i  c #4A6743",
"p  c #4E7146",
"a  c #5B6454",
"s  c #437C59",
"d  c #527449",
"f  c #626C5A",
"g  c #575D65",
"h  c #425A7A",
"j  c #4A5E78",
"k  c #4C7D68",
"l  c #467578",
"z  c #466675",
"x  c #636463",
"c  c #6D6D6D",
"v  c #646A64",
"b  c #697466",
"n  c #727272",
"m  c #568801",
"M  c #5C8C08",
"N  c #658E06",
"B  c #619013",
"V  c #498539",
"C  c #6B9721",
"Z  c #739D2D",
"A  c #7BA239",
"S  c #4B8A4A",
"D  c #4C8448",
"F  c #59884C",
"G  c #4F9044",
"H  c #529540",
"J  c #5B9B49",
"K  c #48825A",
"L  c #568657",
"P  c #589759",
"I  c #659E57",
"U  c #5BA758",
"Y  c #65B64F",
"T  c #63AE5D",
"R  c #62B353",
"E  c #6AB757",
"W  c #4A8865",
"Q  c #598B69",
"!  c #569E68",
"~  c #498A7B",
"^  c #519076",
"/  c #6A9971",
"(  c #59A464",
")  c #57A165",
"_  c #69A861",
"`  c #76A66B",
"'  c #76BA67",
"]  c #77A573",
"[  c #7DB678",
"{  c #67A872",
"}  c #8E9E16",
"|  c #8B932B",
" . c #A19E2B",
".. c #BAA43A",
"X. c #DDBB33",
"o. c #DDBD3A",
"O. c #C7B32B",
"+. c #9AA655",
"@. c #87A751",
"#. c #81BB75",
"$. c #83BB7A",
"%. c #92B076",
"&. c #A5B269",
"*. c #878C5C",
"=. c #DBBD48",
"-. c #DABF52",
";. c #E2C552",
":. c #D9C163",
">. c #E5CB64",
",. c #E3CB6D",
"<. c #E1CB75",
"1. c #274F84",
"2. c #2D5588",
"3. c #355989",
"4. c #2D5B95",
"5. c #3A6696",
"6. c #3366AA",
"7. c #396AA7",
"8. c #4B6687",
"9. c #536985",
"0. c #556D8A",
"q. c #5A7687",
"w. c #496A95",
"e. c #577296",
"r. c #4D778F",
"t. c #65798C",
"y. c #637A94",
"u. c #6A7D96",
"i. c #4876AB",
"p. c #537CB3",
"a. c #5076A8",
"s. c #488884",
"d. c #598A90",
"f. c #699684",
"g. c #6E8397",
"h. c #75859A",
"j. c #6F9090",
"k. c #79AB86",
"l. c #75AC81",
"z. c #5E84B4",
"x. c #5882AC",
"c. c #6989A7",
"v. c #7C8DA2",
"b. c #7288A7",
"n. c #7596AC",
"m. c #688AB7",
"M. c #7B96B8",
"N. c #6C91B2",
"B. c #7B99C1",
"V. c #879A9A",
"C. c #909F96",
"Z. c #838C86",
"A. c #84A986",
"S. c #8AB788",
"D. c #94B98C",
"F. c #8BA99A",
"G. c #97A699",
"H. c #8DB299",
"J. c #98B698",
"K. c #8695A5",
"L. c #999FA4",
"P. c #889DB7",
"I. c #89ABA8",
"U. c #96A6B6",
"Y. c #9AB3AE",
"T. c #A5BDA4",
"R. c #A5B9A9",
"E. c #A1ADBD",
"W. c #ABB8B9",
"Q. c #ADB0AF",
"!. c #ACBB91",
"~. c #C2BB8C",
"^. c #92C085",
"/. c #9FC396",
"(. c #A3C49C",
"). c #A7C3A6",
"_. c #B4C3AC",
"`. c #B8C6B7",
"'. c #D6C687",
"]. c #D2C799",
"[. c #CEC69B",
"{. c #D0CAB0",
"}. c #829EC2",
"|. c #8DA9CF",
" X c #88A1C1",
".X c #92ACCD",
"XX c #98AAC0",
"oX c #9CB1C7",
"OX c #9CB2D0",
"+X c #96AED0",
"@X c #A4B5CC",
"#X c #ABBBCD",
"$X c #A7B5C4",
"%X c #B4BDC8",
"&X c #A9BAD2",
"*X c #B1BFD2",
"=X c #B9C2CD",
"-X c #B4C1D2",
";X c #BCC5D2",
":X c #C7CAC7",
">X c #C3CBD4",
",X c #C7CED8",
"<X c #D1D5DA",
"1X c #CBD1CD",
"2X c #DADFE5",
"3X c #DEE3E8",
"4X c #E5E9ED",
"5X c #ECEEF2",
"6X c #F1F2F5",
"7X c #FEFEFE",
"8X c #F6F7F8",
/* pixels */
"                                                                                                                                ",
"                                                                                                                                ",
"                                                                                                                                ",
"                                                                                                                                ",
"                                                                                                                                ",
"                                                                                                                                ",
"                                                                                                                                ",
"                                                                                                                                ",
"                                                                                                                                ",
"                                                                                                                                ",
"                                                                                                                                ",
"                                                                                                                                ",
"                                                                                                                                ",
"                                                                                                                                ",
"                                                                                                                                ",
"                                                                                                                                ",
"                                                                                                                                ",
"                                                                                                                                ",
"                                                                                                                                ",
"                                                                                                                                ",
"                                                                                                                                ",
"                                                                                                                                ",
"                                                      y c c c c c c c c g                                                       ",
"                                          x n v t g x 5 t.j 4 4 4 4 4 5 5 g g t v n x                                           ",
"                                          & 3 7 1.1.1.2. XP.1.1.1.1.1.1.1.1.1.1.7 3 &                                           ",
"                                        8 w.2.m.e.w.w.M.u.5.XXe.2.3.w.1.u.1.1.1.1.1.1.>                                         ",
"                                      & }.@X6.i.p.m.z.OX|.}.B.oX4.$Xn.1.1.1.1.1.1.1.1.1..                                       ",
"                                      ; 6.7.6.6.#X}.6.p.@X&X@X.Xm.6.2.b.b.1.1.1.1.1.1.1.*                                       ",
"                                      ; 6.@X@X.X}.}.p.@X&X|.+XOXm.m.M.1.4.1.1.1.2.u.1.1.&                                       ",
"                                      ; p.B..X.X|.OXoX*X@X*X;X>X&XU.=Xw.XXy.1.1.h.y.1.1.&                                       ",
"                                      - B.p.7.-X*X.X|.OX*X>X>X1X:X%XB.E.w.3.1.w.h.w.1.1.&                                       ",
"                                      : }.7.p.z.*X*X+X.X&X{.'.:.'.%Xw.p.L.L.L.u.2.0.1.1.&                                       ",
"                                      < U.x.oX-X*X;X*X{.<.>.=.X.{.&.*.4.4.3.2.1.2.e.1.1.&                                       ",
"                                      ; i.-Xx.;X*X=X{.>.>.;.X.=.`.N | j 7 > 7 7 7 w.2.1.&                                       ",
"                                      = 7.N.B.&X<X].>.>.>.o.X.[.+.M } V.K.h 9.9.9.8.e.1.&                                       ",
"                                      = s.-X.X|.;X>.>.>.o.X.=.{.C % } G.6X4Xy.<X<X9.u.1.&                                       ",
"                                      = N.n.n.OX&X;.;.o.X.X.[.E C m  .K.7X%Xy.$XU.8 q.0.&                                       ",
"                                      = E.$Xd.OX%XX.X.X.X.'.!.A C m  .K.7X>X0.2Xq.e.3.L.:                                       ",
"                                      , d.@XOX+X~.X.X.X.;.1X@.A B N ..E.8X7XE.E.5X8 e L.u                                       ",
"                                      , U.;X*X&X{.X.X.=.{.+.A Z m } y 9.9 5X6X4 9 W.K.z .                                       ",
"                                      , Y.-X-X;X1Xo.o.{.%.Z N M N ..t.9.- %X7X8.g.V.u.w X                                       ",
"                                      , s.I.-X;X{.=.].&.m m % N O.f %X4X2 h E.q.l J.F.w X                                       ",
"                                      , s.s.j.I.>X:X&.m m m } O.t h 2X7X=X2 j V.Y.] A.q X                                       ",
"                                      , s.j.Y.;XI./ @.+.+.*.a 5 7X%Xh 6X7XU.T.W./ Q k w X                                       ",
"                                      a `.).n.f.q.r ~ ~ ~ w j U.1X3 - v.v.j.V.V.L.F.k l O                                       ",
"                                      v f.~ ~ s.5X6 ~ l K.8.-X7X7Xh - - w R.G.J.] R.R.k O                                       ",
"                                      < H.^ l 6X7X8.q.5X7X2X9 K.7X%X- 6 k G.F.R.H.f.Q s O                                       ",
"                                      @ H.^ g.7Xu.8 2X7Xu.;Xv.- U.2Xz / C.Z.L K R.K s s O                                       ",
"                                      @ k.l.y.7X9.3 %X7Xj U.j 6 r q.H.k.F.R.Q L `.Q W D +                                       ",
"                                      @ { l.w 3X6X9.0.7X>Xg.3 W ! f.H.`.Q A.A.A.A.J.R.K +                                       ",
"                                      @ ! l.W 8 7X7Xg.$X7XU.2 W ! ! H.] D ] J.D Q I S S +                                       ",
"                                      # ! k.) W ;X7X5X0.7X7X5X6 ) k.`.! D ] T.D J.R.S S +                                       ",
"                                      # ) l.U U < 7X7Xh 4X7X$X6 ( ).).H.%./ T.G S.` ` D +                                       ",
"                                      $ U [ W z U.7X7X8 >X,X2 ! H.S.S.).D.T T.I I I _.V +                                       ",
"                                      p ( [ 1 5X7X6XK.2 h g.s U /.).`.`.T V %.D._.` J V %                                       ",
"                                      p T [ 1 4Xv.4 w P - 1 T ).T ^.T [ S.V ` /._.` I J i                                       ",
"                                      p R $.U U U U R R K U (.[ ).E ^.[ J.H H J Y J V H %                                       ",
"                                      d R #.' $.#.#.[ Y Y $.(.E ' ' R R D.H H H H H H H p                                       ",
"                                      p ' :X(.^.^.^.(.).(./.E Y R 1X' Y H H H H H H H H %                                       ",
"                                      p Y Y Y Y Y Y Y Y Y #.Y Y Y Y Y Y H H H H H H H H %                                       ",
"                                      d Y Y Y Y Y Y Y Y Y Y Y Y Y Y Y R H H H H V J H H i                                       ",
"                                        d H V J Y Y Y Y Y Y Y Y Y Y Y R H H H H V % % %                                         ",
"                                          x n Z.f a b b F F F F F F F F b v a v Z.n x                                           ",
"                                            n c c x x v c c c c c c c c x x x c c n                                             "
};
