/* XPM */
static char *_28c79751bc045e9c17a18a2e1729e129jDhxdQrs4QXPd6i[] = {
/* columns rows colors chars-per-pixel */
"64 64 191 2 ",
"   c None",
".  c #07366A",
"X  c #08376B",
"o  c #06386C",
"O  c #08386B",
"+  c #063B73",
"@  c #053E78",
"#  c #04417D",
"$  c #074676",
"%  c #1D4473",
"&  c #08517C",
"*  c #2F5179",
"=  c #034786",
"-  c #034986",
";  c #044788",
":  c #044A89",
">  c #194C81",
",  c #085982",
"<  c #085B88",
"1  c #17548D",
"2  c #18548C",
"3  c #034D94",
"4  c #044F98",
"5  c #055D92",
"6  c #04519E",
"7  c #055799",
"8  c #096389",
"9  c #066596",
"0  c #066D9B",
"q  c #086A99",
"w  c #0A7897",
"e  c #0A7998",
"r  c #09749A",
"t  c #37729F",
"y  c #0455A4",
"u  c #0456A8",
"i  c #055CAA",
"p  c #0458A7",
"a  c #195FA5",
"s  c #0665AC",
"d  c #066CAE",
"f  c #0566A0",
"g  c #1962AB",
"h  c #0877A0",
"j  c #0773AF",
"k  c #087CA8",
"l  c #066FB1",
"z  c #0773B0",
"x  c #0875B1",
"c  c #077BB2",
"v  c #087BB2",
"b  c #197BB3",
"n  c #4476A3",
"m  c #0982A5",
"M  c #098BAB",
"N  c #0996AE",
"B  c #0783B3",
"V  c #0883B3",
"C  c #088AB5",
"Z  c #1C84B5",
"A  c #178DB6",
"S  c #0996B6",
"D  c #0998B6",
"F  c #0992B9",
"G  c #099DBA",
"H  c #079BBB",
"J  c #1D9FB9",
"K  c #1897B9",
"L  c #2990B6",
"P  c #09A3BA",
"I  c #09ABBE",
"U  c #07A5BE",
"Y  c #0AB1BF",
"T  c #3E95C0",
"R  c #09ACC1",
"E  c #0AB3C1",
"W  c #0ABCC4",
"Q  c #12BDC6",
"!  c #1CB8C3",
"~  c #2CABC3",
"^  c #4598C2",
"/  c #5AA4C7",
"(  c #44B7CB",
")  c #09C0C6",
"_  c #0AC3C8",
"`  c #0ACCCF",
"'  c #1CC0C7",
"]  c #1BC1C8",
"[  c #0ACFD0",
"{  c #0AD5D5",
"}  c #0AD8D6",
"|  c #0BDBDA",
" . c #1ED8D7",
".. c #12DBD9",
"X. c #1DDBDA",
"o. c #1ED3D4",
"O. c #2FC8CE",
"+. c #2EC5CC",
"@. c #3AC7CE",
"#. c #30C4CC",
"$. c #28DCDB",
"%. c #26DBDA",
"&. c #04FED2",
"*. c #0CFDD4",
"=. c #14FCD4",
"-. c #18FCD3",
";. c #2CFBD4",
":. c #0DE5E4",
">. c #0DEEE7",
",. c #0FEBEB",
"<. c #10EBEC",
"1. c #21EAEA",
"2. c #2EEBEA",
"3. c #29EFE3",
"4. c #35E8E7",
"5. c #33EAEA",
"6. c #3CECEB",
"7. c #3DF0E8",
"8. c #2AF0E4",
"9. c #41CED2",
"0. c #45D1D3",
"q. c #6BD5DF",
"w. c #6BDFE2",
"e. c #72DAE1",
"r. c #4AE9E7",
"t. c #49ECEB",
"y. c #47EDED",
"u. c #5DEFEE",
"i. c #67EFEE",
"p. c #75E9E9",
"a. c #69FDE5",
"s. c #6EF0EF",
"d. c #67FDE5",
"f. c #71FCE6",
"g. c #71F0EF",
"h. c #7FFCE8",
"j. c #6CF0F0",
"k. c #70F0F0",
"l. c #96B6D6",
"z. c #89B2D3",
"x. c #A5CEDE",
"c. c #A8CFE0",
"v. c #8DEBED",
"b. c #8EE2EA",
"n. c #97EEEF",
"m. c #8FF6EF",
"M. c #86FCEA",
"N. c #9AFEEE",
"B. c #97EEF0",
"V. c #88F2F2",
"C. c #99F4F4",
"Z. c #99FFF0",
"A. c #BBEAEC",
"S. c #AAFDEE",
"D. c #A7FCEF",
"F. c #ABF5F6",
"G. c #A5FDF0",
"H. c #A9FDF1",
"J. c #AEFDF2",
"K. c #ADFDF1",
"L. c #ABF4F6",
"P. c #B4FCF2",
"I. c #BAFDF3",
"U. c #BAFCF3",
"Y. c #BCFCFC",
"T. c #B7F4F4",
"R. c #C0ECEF",
"E. c #CAEFF0",
"W. c #C1F3F3",
"Q. c #C2F3F4",
"!. c #C0F3F4",
"~. c #C0F4F3",
"^. c #C3FDF4",
"/. c #CBFDF7",
"(. c #CBFDF6",
"). c #CBFDF5",
"_. c #D2FDF5",
"`. c #D1FCF4",
"'. c #DFFAFA",
"]. c #E9F6F7",
"[. c #E2FCFA",
"{. c #E8FAFA",
"}. c #FDFEFD",
"|. c #FEFEFD",
" X c #FDFEFE",
".X c #FEFEFE",
"XX c white",
"oX c #FFFEFF",
"OX c #FDFDFD",
"+X c #FCFEFC",
"@X c #F2FAF9",
/* pixels */
"      N.N.N.N.N.N.N.N.N.N.Z.N.N.H.            S.N.N.N.N.N.N.N.Z.N.N.Z.N.G.N.N.N.S.            K.Z.N.Z.N.N.N.Z.N.N.Z.N.N.G.      ",
"      N.Z.N.Z.Z.Z.Z.Z.Z.Z.Z.Z.N.H.            G.Z.N.Z.Z.Z.Z.Z.Z.Z.Z.Z.Z.Z.Z.Z.Z.H.            H.Z.Z.Z.Z.Z.Z.Z.Z.Z.Z.N.Z.N.      ",
"      H.N.N.N.N.N.N.N.N.N.N.N.Z.H.            H.N.N.N.N.N.N.N.N.N.N.N.N.N.N.N.N.H.            H.Z.Z.N.N.N.N.N.N.N.N.N.N.G.      ",
"K.H.P.U.).).).(././././.)./.(.(.^.P.K.S.P.J.H.P.)././.).).).).(.)./././././././.P.H.K.K.K.K.P.^.).)./.).).).).).)./.).).U.K.K.K.",
"N.Z.N.).|.|.|.|.OX+X+X+X|.|.|.|.[.G.N.N.Z.Z.Z.I.|.|.|.|.|.|.|.|.|.|.|.|.|.|.|.|.I.N.N.N.Z.N.G.[.|.|.|.|.|.|.|.|.|.|.+X+X^.Z.N.N.",
"N.N.N.).|.|.|.|.|.OXOX+X|.|.|.OX[.G.N.N.Z.N.N.I.|.|.|.|.|.|.|.|.|.|.|.|.|.|.|.|.P.Z.N.N.N.N.G.[.|.|.OX+X|.|.|.|.|.|.|.+X^.N.Z.N.",
"f.a.a.M.S.D.S.S.S.S.S.S.S.D.H.H.N.f.a.a.a.a.a.h.H.S.S.S.S.S.S.S.D.S.S.S.S.S.H.S.h.d.a.a.a.a.f.N.H.D.D.S.D.S.S.S.S.S.D.D.M.d.d.f.",
"-.&.&.&.&.&.&.&.&.&.&.&.&.&.&.&.&.&.&.&.&.&.&.&.&.&.&.&.&.&.&.&.&.&.&.&.&.&.&.&.&.&.&.&.&.&.&.&.&.&.&.&.*.&.&.&.&.&.&.&.&.&.&.-.",
"-.&.&.&.&.&.&.&.&.&.&.&.&.&.&.&.&.&.&.&.&.&.&.&.&.&.&.&.&.&.&.&.&.&.&.&.&.&.&.&.&.&.&.&.&.&.&.&.&.&.&.&.&.&.&.&.&.&.&.&.&.&.&.-.",
";.-.-.*.&.&.&.&.&.&.&.&.&.&.&.&.*.=.=.=.-.-.=.=.&.&.&.&.&.&.&.&.&.*.&.&.&.&.&.&.*.-.-.-.-.-.=.*.&.&.&.&.&.&.&.&.&.&.&.&.*.-.-.;.",
"      8.,.,.>.>.>.>.>.>.>.>.,.,.7.U.`.`.`.`.`.m.,.>.>.>.,.>.>.>.>.>.>.>.>.>.>.,.m.)._._.`.`.U.6.,.,.>.>.,.<.>.>.>.>.>.>.3.      ",
"      1.,.,.<.<.<.<.<.<.<.<.,.,.t.'.|. X|.|.|.F.,.,.<.<.<.<.<.<.,.,.,.,.,.,.,.,.F.|.|.|.|.|.'.t.,.,.>.<.<.<.,.<.,.,.,.,.2.      ",
"      5.,.,.<.<.<.<.<.<.<.<.<.<.y.'. X X X X XF.<.,.,.,.<.<.<.<.<.<.<.<.<.<.,.,.F.|. X|. X X'.t.,.,.,.,.<.<.<.<.<.<.,.,.5.      ",
"t.4.6.1.,.,.2.k.k.k.k.j.j.y.,.,.2.V.C.C.C.C.C.i.,.,.<.i.j.k.k.k.k.k.k.j.i.1.,.,.i.C.C.C.C.C.V.2.,.,.y.j.k.k.k.k.g.4.,.,.1.6.6.r.",
"<.,.,.,.,.<.u. X|.|.|.|. XC.,.,.,.,.,.,.,.,.,.,.,.,.y.{.|.|.|.|.|.|.|.|.{.y.,.,.,.,.,.,.,.,.,.,.,.,.C. X|.|.|.|.|.u.<.<.,.,.,.<.",
"2.,.,.,.,.,.u.|.|.|.|. X XC.,.,.,.,.,.,.,.,.,.,.,.,.y.{.|.|.|.|.|.|.|.|.{.6.,.,.,.<.,.,.,.,.,.,.,.,.C.|.|.|.|.|.+Xu.,.,.,.<.<.1.",
"1.,.<.,.:.:.r.U.W.W.W.W.W.p.:.>.,.,.<.<.,.,.,.,.:.:.4.T.U.W.Q.Q.Q.Q.Q.T.T.4.:.>.,.<.,.,.<.<.<.<.,.:.g.T.Q.Q.Q.Q.Q.t.:.>.:.<.,.1.",
"1.,.<.:.| | ..$.$.$.$.$.$.X.| | | :.>.<.,.<.,.:.| } ..$.%.%.$.$.$.$.$.%.%...| } :.,.,.<.<.<.>.| | | %.$.$.$.$.$.$...| | :.<.,.1.",
"1.:.<.| } } { { ..} } } } } } } | <.<.<.,.,.,.:.} } } } { } { } } } { } { { } } :.,.,.,.>.<.>.| } } { { } } } { { } } } | ,.,.<.",
"1.>.<.:.} } } } { { } } } } } } | <.<.>.,.,.>.:.} } } } } } ..} | } | } } { } } :.,.<.<.>.<.>.| } } } } { | } | } } } } :.,.<.2.",
"%.| | | } } } } } } } } } } } } } | | | } | | | } } } } } } } } { } } } } } } } { } | | } } | } } } } } } } } } } } } } | | | X.",
" .} { } } } } } } } } } } } } } } } } } { { | { } } } } } } } } } } } } } } } } } } } } } } } } } } } } } } } } } } } } } } }  .",
" .} { } { { { } } } } } } } } } } } } { } } { } } } { } } } } } { ..{ } } { } { } } } } } } } } } { } { } { { { { } { } } } }  .",
" .} { { [ ` [ [ ` ` ` ` ` ` [ [ [ { } } } } } { ` [ ` ` ` ` [ [ ` ` [ ` ` ` ` ` { } } } } } } [ ` ` [ ` [ ` [ [ ` ` ` ` { } }  .",
" .} } ` ) ) ) W W W W W W W W W _ { { } } } } [ W Y ) ) W W W W W W W W W W ) W [ } } } } } } _ W W W ) W W W ) W W W W ` { }  .",
" .} } ` Y ) W W W W W W W W W W _ { } } } } } [ W ) W ) W W W W W W ) W W W W W [ } } } } } [ _ W W W W W W W ) W W ) W ` { }  .",
"o.{ { _ W W W W W ) W W W W W W _ [ [ { [ { [ ` W W W W W W Y ) W W W W ) ) W W ` [ [ [ [ [ [ _ ) W W W W W Y ) W W W W ` [ [ o.",
"' ) ) W W W W W W Q W W W W W W W ) ) ) ) ) ) W W W W W ) ) ) W W W W W ) Y ) W ) ) _ ) ) ) _ ) W W W W W W ) W W ) W W W ) ) ' ",
"' W W ) Y ) W W W W W W W W W W W W W W W W ) W W W ) ) W W W W Y Q ) ) Q ) W W ) W W W W W W W W W W W W W W W W W W W W W W ' ",
"' W W W ) ) W W W W W W W W W ) W W W W W W W ) W W Y ) W W ) ] ] ) W ) Y ) W W W W W W W W W W W W W W W W W W W W Q W W W ) ' ",
"' W W Y P P P P P P P P P P P P U W W W W W W Y P P P P P P e.n.m.e.W Y Y I P P Y ) ) W W W W Y P P P P P P P P P Y W W W W Y ] ",
"' W W I D D N D N D D D D D N D P W W W W W W Y N D D D D D b.U.Y.m.W ) ) P D N Y W W W W W Y P N D D N D D N P N Y W W W ) ) ] ",
"' Q W R D D D D D D D D D D D D G W W W W W W Y D D D D D S b.Y.U.v.W ) W G D D Y W W W W W W P D D D D D D D D D E W _ W W W ] ",
"Y R E P D D D D D D P P U G D D G I E E E Y Y I D F D D S S e.v.b.p.W W W G D D I Y Y E E R I G D D S D D K ( ( ( ! W W E E R ! ",
"J K G S D S D D D D E W W Y S D D D D D S D D S D D D D D D E W W W W W Y P D D D D D D D D D D D D D D D ~ T.Y.^.0.W W P D D D ",
"J D D D D D D D D D E W W I D D D D D D D D D D D D D D D D E W W W W W W G D D D D D D D D D D D D D D G ~ J.Y.Y.0.W W I S D D ",
"J D D D S S S S D S Y W W R F D D D D D D D D D F S S D F D E E E E W E E G D D D D D D D D D D D D D D D ~ L.F.J.9.Y W P D D D ",
"J D D C V V v V B B B C B V B c B D S D D D D F B B c B B c C C C C C C C V V v C D D D D D D B V v v V c A +.O.O.] ) W I D D D ",
"J D D C v v v v v v c c v v v v B F D S D D D C v v c v v v v v v v v v v c c c F D D D D D S v v v v v v C W W W W ) ) I D D N ",
"J D D M v v v v v v c c v v v v B N D D D D D F v v v v v v v v v v c v v v v c C D D D S N S V v v v v v C E W W ) ) Y P D D K ",
"L B C v v v L c.c.c.~ R U F c v c B C V C V C v v v v v v v v v v v v v V R R R F B B C C C V v v v v v v v F F F F F C C C V A ",
"Z c v v v v / |.|.@X@.W W H v v c c v v x v v v v v v v v v v v v v v v V E E W F c v v v v v v v v v v v v x x c c c x v v v Z ",
"Z v v v v v / |.|.@X#.W E U c x c v v v v v v v v v v x v v v v v v v v V R W E F v v v v v c c v v v v v v v v v v v v v v v Z ",
"Z v v j x x ^ R.Q.R.! W W U l l j c v v v v v v z z z l z z l z l x x x x R R R F v v v c c c x x l x x x x l l j j l x V C C A ",
"Z c c s u u x W W E W W W F u u s x v v v v v d u u u u u u u u u u u u u y y u l v v v v v x i u u u u u u u u u u u u F W W Q ",
"Z c c d u u v W W W W W W F u u i x v v v c c j u u u u u u u u u u u u u u u u l v c c v v x s u u u u u u u u u u u u F W W W ",
"b x x s u u z R R R R I I C u u i x x j x x j d u u u u u u s s s s u u u u u u l z z z x x z i u u u u u u u u u u u u C R R R ",
"g i i u u u i s s s s s s i u u p i i i i i i p u u u u u u F R R F u u u u u u u i i i i i p p u u u u u u u u u u u u s l l b ",
"g p p p p p p u u u i u u u u u u u u u u u u u u u u u u u P W W R u u u u u u u u u u u u u u u u u u u u u u u u u u u u u g ",
"g i u u p p p p p u u p u u u u u u u u u u u u u u u u p p P W W G u u u u u u u u u u u u u p u u u u u i u u u u u p u u u g ",
"g u u y 3 3 3 3 3 3 C D D k 3 3 4 u u u u u u y 3 3 3 3 3 3 0 r h b l.l.z.~ F F d u u u u p p 4 3 3 3 3 3 7 D D H f 3 3 4 u u g ",
"g u u 4 = = = = = - P W W M ; ; : y u y u u u 6 = = ; - ; ; ; - ; n OXOX{.~ E W z u u u u u y 3 = ; ; ; : 5 E W W q ; ; 4 u u g ",
"g u u 3 ; ; = = - ; P W W M - - 3 y y y u u u 6 ; = = ; = = = = ; n +X|.@X@.W W c y u u u u y : = = = = - 5 E W W 0 = = 4 y u a ",
"a y 6 4 = ; = = - - N P H k = = : 6 y y y 6 y 4 = = = = = = = = ; n E.E.R.! W W j y y y 6 6 6 ; = = = - = 5 P P P 9 = = 3 y y a ",
"2 - : ; ; = = = - ; - : - - ; = = : : ; = : : = = = = = = = = ; ; 9 Q ! W W W W 0 ; ; ; ; ; = = = = = = = ; : : : - = = ; ; ; 2 ",
"2 = = = = = ; = - ; - - - ; = = = = = = ; = - = = = = ; ; = = - ; 9 W W W W W W 0 = ; ; ; = = = = = = = = = - = - - = ; = ; ; 2 ",
"2 = = = - - - - - - - # = = = = = = = = = = - = = ; = ; = ; = = = 9 W E W W W E 0 = ; = ; ; = = = = = = = = = = - - - - - - - 1 ",
"2 = = # + o < G D D - o + + + o + = = = = = - # o + o o + + O O + + , & , & , , - ; = = ; ; = @ o + o + o + + o + m D G r - - 1 ",
"2 = = @ X X 8 W W W & . . . . . + = - ; = = ; # o X . . . . . . o . . . . . X X @ ; ; ; = = # + X X . . . . . . O N W W m ; - 1 ",
"2 = = @ . . 8 W W E & o . . . . X = - - = = = # . . . . . . . . o . . . . o X X @ ; ; ; = = = o X . . . . . . . O N W W m - - 1 ",
"% # # + . . $ w w w $ o . . . . O @ @ @ @ @ @ + . . . . . . . . . . . . . . . . + @ @ @ @ @ @ o X . . . o . . . X 8 w w < @ @ > ",
"% o o o . . O O . . . . . . . . X X X X X X X X . . . . . . . . . . . . . . . . X X X X X X X . . . . . X X . . o . o . o o o % ",
"% X X X X X . . . . X X O O O . X X X X X X X X X X X X X X X X . X X X X X . X X . X X X X . . X X X X X X X X X X o . . o o % ",
"* % % % % % % % % % % % % % % % % % % % % % % % % % % + % % % % % % % % % % % % % % % % % % % % % % % % % % % % % % % % % % % * "
};
